dataset
version=1
nRows=16
nColumns=39
inDegrees=no
endheader
time	sternoclavicular_r2	sternoclavicular_r3	unrotscap_r3	unrotscap_r2	acromioclavicular_r2	acromioclavicular_r3	acromioclavicular_r1	unrothum_r1	unrothum_r3	unrothum_r2	elv_angle	shoulder_elv	shoulder1_r2	shoulder_rot	elbow_flexion	pro_sup	deviation	flexion	cmc_abduction	cmc_flexion	mp_flexion	ip_flexion	mcp2_flexion	mcp2_abduction	pm2_flexion	md2_flexion	mcp3_flexion	mcp3_abduction	pm3_flexion	md3_flexion	mcp4_flexion	mcp4_abduction	pm4_flexion	md4_flexion	mcp5_flexion	mcp5_abduction	pm5_flexion	md5_flexion
3.945000	-0.025911	-0.293539	0.132630	0.100807	0.066392	0.163180	-0.061007	-0.052755	0.122438	0.074232	0.080838	0.027437	0.146525	0.146525	1.574570	1.302469	0.000000	0.000000	0.000000	0.000000	0.000000	0.000000	0.000000	0.000000	0.000000	0.000000	0.000000	0.000000	0.000000	0.000000	0.000000	0.000000	0.000000	0.000000	0.000000	0.000000	0.000000	0.000000
3.950000	-0.025860	-0.293587	0.132402	0.101395	0.067233	0.162003	-0.061503	-0.052596	0.121142	0.075206	0.081402	0.027437	0.146525	0.146525	1.571431	1.302462	0.000000	0.000000	0.000000	0.000000	0.000000	0.000000	0.000000	0.000000	0.000000	0.000000	0.000000	0.000000	0.000000	0.000000	0.000000	0.000000	0.000000	0.000000	0.000000	0.000000	0.000000	0.000000
3.955000	-0.025810	-0.293635	0.132175	0.101984	0.068073	0.160836	-0.061992	-0.052439	0.119863	0.076177	0.081968	0.027437	0.146525	0.146525	1.568317	1.302453	0.000000	0.000000	0.000000	0.000000	0.000000	0.000000	0.000000	0.000000	0.000000	0.000000	0.000000	0.000000	0.000000	0.000000	0.000000	0.000000	0.000000	0.000000	0.000000	0.000000	0.000000	0.000000
3.960000	-0.025762	-0.293684	0.131950	0.102574	0.068911	0.159680	-0.062477	-0.052284	0.118602	0.077146	0.082536	0.027437	0.146525	0.146525	1.565228	1.302443	0.000000	0.000000	0.000000	0.000000	0.000000	0.000000	0.000000	0.000000	0.000000	0.000000	0.000000	0.000000	0.000000	0.000000	0.000000	0.000000	0.000000	0.000000	0.000000	0.000000	0.000000	0.000000
3.965000	-0.025715	-0.293733	0.131728	0.103163	0.069746	0.158535	-0.062955	-0.052133	0.117359	0.078111	0.083106	0.027437	0.146525	0.146525	1.562164	1.302433	0.000000	0.000000	0.000000	0.000000	0.000000	0.000000	0.000000	0.000000	0.000000	0.000000	0.000000	0.000000	0.000000	0.000000	0.000000	0.000000	0.000000	0.000000	0.000000	0.000000	0.000000	0.000000
3.970000	-0.025669	-0.293782	0.131508	0.103753	0.070580	0.157401	-0.063428	-0.051984	0.116133	0.079073	0.083679	0.027437	0.146525	0.146525	1.559126	1.302421	0.000000	0.000000	0.000000	0.000000	0.000000	0.000000	0.000000	0.000000	0.000000	0.000000	0.000000	0.000000	0.000000	0.000000	0.000000	0.000000	0.000000	0.000000	0.000000	0.000000	0.000000	0.000000
3.975000	-0.025624	-0.293832	0.131291	0.104343	0.071411	0.156278	-0.063896	-0.051838	0.114926	0.080032	0.084253	0.027437	0.146525	0.146525	1.556115	1.302407	0.000000	0.000000	0.000000	0.000000	0.000000	0.000000	0.000000	0.000000	0.000000	0.000000	0.000000	0.000000	0.000000	0.000000	0.000000	0.000000	0.000000	0.000000	0.000000	0.000000	0.000000	0.000000
3.980000	-0.025580	-0.293883	0.131077	0.104934	0.072241	0.155167	-0.064359	-0.051696	0.113736	0.080987	0.084830	0.027437	0.146525	0.146525	1.553132	1.302393	0.000000	0.000000	0.000000	0.000000	0.000000	0.000000	0.000000	0.000000	0.000000	0.000000	0.000000	0.000000	0.000000	0.000000	0.000000	0.000000	0.000000	0.000000	0.000000	0.000000	0.000000	0.000000
3.985000	-0.025538	-0.293936	0.130866	0.105524	0.073068	0.154067	-0.064817	-0.051557	0.112565	0.081940	0.085408	0.027437	0.146525	0.146525	1.550177	1.302377	0.000000	0.000000	0.000000	0.000000	0.000000	0.000000	0.000000	0.000000	0.000000	0.000000	0.000000	0.000000	0.000000	0.000000	0.000000	0.000000	0.000000	0.000000	0.000000	0.000000	0.000000	0.000000
3.990000	-0.025497	-0.293989	0.130658	0.106115	0.073892	0.152978	-0.065270	-0.051421	0.111412	0.082889	0.085988	0.027437	0.146525	0.146525	1.547251	1.302360	0.000000	0.000000	0.000000	0.000000	0.000000	0.000000	0.000000	0.000000	0.000000	0.000000	0.000000	0.000000	0.000000	0.000000	0.000000	0.000000	0.000000	0.000000	0.000000	0.000000	0.000000	0.000000
3.995000	-0.025457	-0.294043	0.130454	0.106705	0.074714	0.151901	-0.065718	-0.051290	0.110277	0.083835	0.086570	0.027437	0.146525	0.146525	1.544356	1.302342	0.000000	0.000000	0.000000	0.000000	0.000000	0.000000	0.000000	0.000000	0.000000	0.000000	0.000000	0.000000	0.000000	0.000000	0.000000	0.000000	0.000000	0.000000	0.000000	0.000000	0.000000	0.000000
4.000000	-0.025419	-0.294099	0.130254	0.107296	0.075533	0.150837	-0.066162	-0.051161	0.109161	0.084777	0.087153	0.027437	0.146525	0.146525	1.541492	1.302322	0.000000	0.000000	0.000000	0.000000	0.000000	0.000000	0.000000	0.000000	0.000000	0.000000	0.000000	0.000000	0.000000	0.000000	0.000000	0.000000	0.000000	0.000000	0.000000	0.000000	0.000000	0.000000
4.005000	-0.025382	-0.294156	0.130057	0.107886	0.076350	0.149784	-0.066601	-0.051037	0.108063	0.085715	0.087738	0.027437	0.146525	0.146525	1.538659	1.302301	0.000000	0.000000	0.000000	0.000000	0.000000	0.000000	0.000000	0.000000	0.000000	0.000000	0.000000	0.000000	0.000000	0.000000	0.000000	0.000000	0.000000	0.000000	0.000000	0.000000	0.000000	0.000000
4.010000	-0.025345	-0.294215	0.129864	0.108475	0.077163	0.148743	-0.067036	-0.050917	0.106983	0.086650	0.088324	0.027437	0.146525	0.146525	1.535859	1.302279	0.000000	0.000000	0.000000	0.000000	0.000000	0.000000	0.000000	0.000000	0.000000	0.000000	0.000000	0.000000	0.000000	0.000000	0.000000	0.000000	0.000000	0.000000	0.000000	0.000000	0.000000	0.000000
4.015000	-0.025310	-0.294276	0.129676	0.109065	0.077974	0.147715	-0.067467	-0.050801	0.105921	0.087580	0.088910	0.027437	0.146525	0.146525	1.533093	1.302255	0.000000	0.000000	0.000000	0.000000	0.000000	0.000000	0.000000	0.000000	0.000000	0.000000	0.000000	0.000000	0.000000	0.000000	0.000000	0.000000	0.000000	0.000000	0.000000	0.000000	0.000000	0.000000
4.020000	-0.025277	-0.294338	0.129491	0.109653	0.078781	0.146699	-0.067893	-0.050689	0.104878	0.088506	0.089498	0.027437	0.146525	0.146525	1.530361	1.302230	0.000000	0.000000	0.000000	0.000000	0.000000	0.000000	0.000000	0.000000	0.000000	0.000000	0.000000	0.000000	0.000000	0.000000	0.000000	0.000000	0.000000	0.000000	0.000000	0.000000	0.000000	0.000000
